<svg width="24" height="24" viewBox="0 0 24 24" fill="none" xmlns="http://www.w3.org/2000/svg">
<path fill-rule="evenodd" clip-rule="evenodd" d="M9.3319 1.37121C7.91228 2.11516 6.75084 2.74469 6.75109 2.7703C6.75172 2.83638 10.1582 4.57193 10.2791 4.5677C10.3341 4.56584 10.7331 4.38108 11.1657 4.15716L11.9524 3.75011L12.8115 4.19438L13.6706 4.63873L15.0776 4.00273C17.1976 3.04437 17.4178 2.93936 17.3832 2.90407C17.3374 2.85726 16.577 2.44631 14.514 1.35368C13.517 0.825602 12.5493 0.307836 12.3635 0.203067C12.1778 0.0982971 12.0005 0.0140169 11.9695 0.0156483C11.9385 0.0172797 10.7515 0.627289 9.3319 1.37121ZM3.10547 4.61484L1.62767 5.38276V8.75304C1.62767 10.6067 1.64707 12.1233 1.67087 12.1233C1.69459 12.1233 2.42168 11.8062 3.28658 11.4187L4.85913 10.7141V7.16158L5.62758 7.58276C6.21973 7.90702 6.81225 8.23062 7.40512 8.55356L8.41418 9.10318L8.86319 8.89892C9.14479 8.77062 9.42582 8.64106 9.70629 8.51026C9.92301 8.40873 10.455 8.16766 10.8885 7.97447C11.322 7.78119 11.7233 7.58683 11.7802 7.54253C11.8557 7.48369 10.9341 6.97131 8.37122 5.64733C6.43937 4.64932 4.79679 3.83594 4.72104 3.83984C4.64529 3.84374 3.91828 4.19244 3.10547 4.61484ZM17.6496 4.83049C16.6431 5.28759 15.8189 5.67985 15.818 5.70222C15.8171 5.72456 16.3656 6.05269 17.0371 6.43129C17.7084 6.80997 18.2578 7.14004 18.2578 7.1649C18.2578 7.1897 17.6637 7.47929 16.9376 7.80856C16.2115 8.13774 14.3761 8.97159 12.8589 9.66156L7.7753 11.9732C6.49651 12.5548 5.34384 13.079 5.2138 13.1382C2.60182 14.3278 1.88389 14.6578 1.7853 14.7145C1.68616 14.7715 1.6637 15.1029 1.64605 16.7662L1.625 18.75L2.94652 19.4274L4.26801 20.1048L6.10047 19.2728C7.10835 18.8153 7.93293 18.4169 7.93293 18.3876C7.93293 18.3583 7.74668 18.2363 7.51915 18.1162C7.29152 17.9961 6.82162 17.7303 6.47483 17.5255C6.12807 17.3205 5.78229 17.1325 5.70638 17.1076C5.63049 17.0827 5.5695 17.0392 5.57074 17.0109C5.572 16.9826 6.37893 16.597 7.3638 16.1539C9.27674 15.2935 10.7407 14.6304 13.8835 13.2006C15.2889 12.5613 16.6944 11.9225 18.1001 11.2841C19.3356 10.7231 20.772 10.0679 21.2922 9.82811L22.238 9.39213L22.259 7.38575L22.2801 5.37945L20.9398 4.68734C20.2026 4.30673 19.5724 3.99623 19.5394 3.99737C19.5064 3.99842 18.656 4.37328 17.6496 4.83049ZM21.8789 12.0688C21.6814 12.1658 21.2912 12.3475 21.0119 12.4725C20.7326 12.5975 20.2026 12.8381 19.8341 13.0073L19.1642 13.3147L19.1489 15.0761C19.1404 16.0449 19.105 16.8332 19.0701 16.8281C18.9908 16.8162 17.7352 16.1684 16.473 15.488C15.562 14.997 15.5048 14.9775 15.2908 15.0841C15.167 15.1458 14.4273 15.4796 13.6471 15.8259C12.8668 16.1722 12.2029 16.4781 12.1717 16.5058C12.1406 16.5334 13.711 17.3897 15.6616 18.4087L19.2081 20.2614L20.7231 19.473C21.5562 19.0394 22.2647 18.6439 22.2973 18.5942C22.3708 18.4823 22.3645 11.8769 22.2909 11.8859C22.2619 11.8894 22.0764 11.9717 21.8789 12.0688ZM13.4894 19.8218C13.2267 19.9355 12.9639 20.0493 12.7013 20.1633C11.9082 20.5085 12.0636 20.5199 11.12 20.0474C10.4915 19.7327 10.2206 19.6356 10.103 19.6827C10.0148 19.718 9.25577 20.0616 8.41607 20.4461C7.57643 20.8307 6.86032 21.1453 6.8247 21.1453C6.47241 21.1453 7.05808 21.4973 9.31805 22.6442L11.9685 23.989L13.0836 23.4352C13.697 23.1306 14.934 22.5206 15.8328 22.0796C16.7314 21.6386 17.4556 21.2663 17.4421 21.2523C17.4284 21.2383 16.6754 20.8493 15.7686 20.3879L14.12 19.549L13.4894 19.8218Z" fill="white"/>
</svg>
