<svg width="30" height="30" viewBox="0 0 30 30" fill="none" xmlns="http://www.w3.org/2000/svg">
<path d="M27.4516 7.85751C26.535 8.27418 25.5469 8.54799 24.5231 8.67894C25.5707 8.04799 26.3802 7.04799 26.7612 5.84561C25.7731 6.44085 24.6778 6.85751 23.5231 7.09561C22.5826 6.0718 21.2612 5.47656 19.7612 5.47656C16.9635 5.47656 14.6778 7.76228 14.6778 10.5837C14.6778 10.9885 14.7254 11.3813 14.8088 11.7504C10.5707 11.5361 6.79688 9.50037 4.28497 6.41704C3.84449 7.16704 3.59449 8.04799 3.59449 8.97656C3.59449 10.7504 4.48735 12.3218 5.8683 13.2147C5.02307 13.2147 4.23735 12.9766 3.54688 12.6194V12.6551C3.54688 15.1313 5.30878 17.2028 7.64211 17.667C6.89311 17.8729 6.10644 17.9014 5.34449 17.7504C5.66784 18.7652 6.30109 19.6532 7.15523 20.2896C8.00937 20.9259 9.04145 21.2786 10.1064 21.298C8.30124 22.7272 6.06355 23.4997 3.76116 23.4885C3.3564 23.4885 2.95164 23.4647 2.54688 23.417C4.80878 24.8694 7.49926 25.7147 10.3802 25.7147C19.7612 25.7147 24.9159 17.9289 24.9159 11.1789C24.9159 10.9528 24.9159 10.7385 24.904 10.5123C25.904 9.79799 26.7612 8.89323 27.4516 7.85751Z" fill="white"/>
</svg>
