<svg width="92" height="92" viewBox="0 0 92 92" fill="none" xmlns="http://www.w3.org/2000/svg">
<g clip-path="url(#clip0_993_12851)">
<path fill-rule="evenodd" clip-rule="evenodd" d="M13.4478 30.7305C13.3459 30.8914 13.2267 31.2043 13.1827 31.4259C13.0125 32.2861 13.0738 32.4021 15.314 35.4623L17.4122 38.3284L16.8844 39.2986C16.1731 40.6059 15.8766 42.415 16.1607 43.7136L16.3606 44.627L12.9667 47.1116C9.60881 49.5697 9.57087 49.6013 9.39241 50.0859C9.07968 50.9349 9.17166 51.5649 9.69966 52.1882C10.2644 52.8549 10.9182 53.095 11.7076 52.9257C12.2196 52.8158 12.578 52.5816 15.4735 50.465L18.6736 48.1258L26.9976 59.4964L35.3216 70.8669L32.1249 73.2106C29.2323 75.3313 28.9008 75.6022 28.6413 76.0571C28.2414 76.7584 28.2728 77.4542 28.7376 78.194C29.1722 78.8856 29.745 79.1636 30.6488 79.122C31.1647 79.0984 31.2062 79.0717 34.5641 76.6135L37.9581 74.1289L38.7683 74.5954C39.9204 75.2587 41.7345 75.5227 43.1956 75.2396L44.28 75.0296L46.4009 77.9268C48.477 80.7627 48.532 80.8274 49.0038 80.9912C49.7224 81.2407 50.2779 81.1943 50.8743 80.8348C51.6159 80.3878 52.0085 79.5726 51.8899 78.7258C51.8054 78.1226 51.7449 78.0251 49.8274 75.4059L47.8519 72.7074L49.4045 71.5708L50.9573 70.4341L52.9968 73.1498C54.7483 75.482 55.0947 75.8922 55.4494 76.0556C56.3618 76.4757 57.3499 76.2906 58.0269 75.5728C58.4508 75.1234 58.6762 74.0309 58.4631 73.4594C58.3697 73.2094 57.4501 71.8538 56.4017 70.4211L54.5088 67.8341L56.069 66.692L57.6292 65.5498L59.4858 68.0847C60.6088 69.618 61.5056 70.7473 61.7555 70.9429C62.6289 71.6265 63.9152 71.5142 64.6964 70.686C65.125 70.2316 65.3027 69.1745 65.06 68.5238C64.949 68.2265 64.1434 67.0305 63.0211 65.4966L61.1656 62.9609L62.7258 61.8187L64.286 60.6765L66.2382 63.3432C68.409 66.3084 68.5395 66.4326 69.5726 66.5166C70.9616 66.6294 72.0176 65.4836 71.839 64.0573C71.7905 63.6698 71.5041 63.2157 69.8101 60.8413L67.8376 58.0766L69.3903 56.9399L70.9429 55.8033L72.9184 58.5018C74.8358 61.121 74.9105 61.2081 75.4599 61.4709C76.2313 61.8398 77.1271 61.712 77.7772 61.1401C78.3001 60.6801 78.5122 60.1646 78.4916 59.4042C78.4779 58.905 78.4328 58.833 76.3568 55.9971L74.2359 53.0999L74.7637 52.1297C75.475 50.8224 75.7715 49.0133 75.4873 47.7147L75.2874 46.8013L78.6814 44.3167C82.0347 41.8619 82.0774 41.8264 82.2549 41.3446C82.5458 40.5549 82.468 39.7012 82.0527 39.1254C81.8329 38.8207 81.6733 38.6839 81.6379 38.7697C81.6062 38.8464 81.5412 38.8558 81.4936 38.7908C81.3102 38.5403 80.4816 38.3865 79.9405 38.5026C79.4284 38.6125 79.0701 38.8467 76.1745 40.9633L72.9745 43.3025L65.5299 33.1368L58.0853 22.9712L57.5524 22.7351C56.1598 22.1182 54.6036 23.1176 54.562 24.6556L54.5465 25.2224L62.9502 36.8109C71.3315 48.3685 71.3538 48.4006 71.3479 48.8478C71.3404 49.4267 71.0725 50.1567 70.6926 50.6346C70.24 51.2037 43.6698 70.6338 42.9294 70.9372C42.1057 71.2746 40.9907 71.1069 40.4609 70.566C40.2388 70.3392 35.6138 64.0551 30.1831 56.6014L20.3091 43.0493L20.3251 42.4584C20.3338 42.1334 20.4616 41.6205 20.6091 41.3187L20.8771 40.77L34.7628 30.6046L48.6486 20.4393L49.2527 20.3497C50.1902 20.2104 50.8386 20.4557 51.4733 21.1892C52.181 22.0073 52.8424 22.3015 53.6579 22.161C54.283 22.0532 54.3385 22.0167 58.5051 18.963C62.356 16.1408 62.7441 15.8316 62.9996 15.3831C63.3093 14.8391 63.3351 14.6788 63.2414 13.8818C63.1834 13.3886 62.5126 12.1937 62.4634 12.4961C62.4535 12.5576 62.2373 12.5346 61.9831 12.4451C61.7288 12.3554 61.2861 12.293 60.9993 12.3062C60.4833 12.3299 60.4418 12.3566 57.084 14.8147L53.69 17.2994L52.8798 16.8328C51.7277 16.1696 49.9135 15.9056 48.4524 16.1887L47.3681 16.3987L45.2472 13.5015C43.1711 10.6656 43.116 10.6009 42.6443 10.437C41.9257 10.1876 41.3702 10.234 40.7737 10.5935C40.0321 11.0405 39.6396 11.8557 39.7582 12.7025C39.8427 13.3057 39.9032 13.4032 41.8206 16.0224L43.7961 18.7209L42.2435 19.8575L40.6908 20.9942L38.6513 18.2785C36.8997 15.9463 36.5534 15.5361 36.1986 15.3727C34.893 14.7715 33.4816 15.432 33.1695 16.7901C32.9374 17.8003 33.0163 17.9623 35.1871 20.9275L37.1393 23.5942L35.5791 24.7363L34.0189 25.8785L32.1622 23.3436C31.0392 21.8103 30.1425 20.681 29.8926 20.4854C29.3457 20.0574 28.2842 19.9074 27.7216 20.1786C26.6961 20.6731 26.2004 21.8653 26.5881 22.9045C26.699 23.2018 27.5046 24.3978 28.627 25.9316L30.4824 28.4674L28.9222 29.6096L27.362 30.7518L25.4679 28.1657C24.4189 26.7334 23.4045 25.4471 23.1945 25.2826C22.7141 24.9068 21.6045 24.7916 21.048 25.0599C20.1592 25.4884 19.6843 26.3743 19.809 27.371C19.8576 27.7585 20.144 28.2126 21.838 30.587L23.8105 33.3517L22.2578 34.4884L20.7052 35.625L18.7297 32.9265C16.8122 30.3073 16.7376 30.2202 16.1881 29.9574C15.2509 29.5091 13.9975 29.8628 13.4478 30.7305ZM9.62895 52.0724C9.85579 52.3823 9.96801 52.4947 9.87844 52.3224C9.78887 52.1501 9.60327 51.8966 9.46599 51.759C9.32871 51.6215 9.4021 51.7625 9.62895 52.0724ZM33.3223 41.5469C33.0754 41.9717 32.9626 42.5236 33.0302 42.9756C33.1042 43.4705 37.7553 61.3231 37.9415 61.827C38.2873 62.7626 39.8017 63.3492 40.7235 62.9047C41.9809 62.2986 42.1967 61.4463 41.6545 59.2293L41.263 57.628L44.4099 55.3242L47.5569 53.0204L48.9489 53.8743C49.7145 54.3439 50.4895 54.7575 50.671 54.7936C51.1625 54.8912 52.012 54.715 52.3923 54.4367C52.8867 54.0747 53.278 53.2439 53.2589 52.5967C53.2254 51.4667 53.2814 51.5088 44.3772 45.908C39.6367 42.9261 36.061 40.7543 35.7437 40.6641C34.7732 40.3882 33.7865 40.7479 33.3223 41.5469ZM43.6881 33.9624C43.3858 34.4819 43.3208 35.4819 43.5569 35.9788C43.7904 36.4701 44.3899 36.9557 44.9509 37.1079C45.5158 37.2611 46.221 37.0847 46.8318 36.6376L47.3622 36.2493L51.3367 41.6785L55.3113 47.1077L54.7809 47.4959C54.17 47.9431 53.7889 48.562 53.7642 49.1468C53.7398 49.7297 54.0217 50.4459 54.4229 50.8202C54.8723 51.2394 55.9672 51.4547 56.5566 51.2399C56.8488 51.1333 58.0115 50.3254 59.7567 49.0163L62.4977 46.9601L62.6694 46.3935C62.8933 45.6551 62.8032 45.1209 62.3507 44.5028C61.6688 43.5714 60.5365 43.4094 59.4383 44.0864L58.7582 44.5056L54.8212 39.1276L50.8842 33.7497L51.4893 33.228C52.4664 32.3857 52.6542 31.2574 51.9723 30.3259C51.5197 29.7077 51.0377 29.4604 50.2662 29.4508L49.6743 29.4433L46.788 31.5194C44.5608 33.1214 43.853 33.6792 43.6881 33.9624ZM14.5897 55.9833C13.2579 57.5408 14.4352 59.7825 16.4241 59.4763C17.0175 59.3849 17.1718 59.2947 18.8998 58.0297C19.9134 57.2877 20.8754 56.5365 21.0377 56.3603C21.213 56.17 21.3825 55.7333 21.4555 55.284C21.6206 54.2686 21.3058 53.6202 20.4343 53.1797C19.7395 52.8286 19.2104 52.8042 18.5428 53.0922C17.9828 53.334 14.973 55.5351 14.5897 55.9833ZM61.053 21.9717C60.6253 22.4818 60.4919 23.0257 60.6121 23.7668C60.7687 24.7307 61.2917 25.2267 62.3095 25.3761C62.7599 25.4423 63.2274 25.4127 63.4618 25.303C63.6788 25.2016 64.6855 24.5115 65.6991 23.7694C67.4271 22.5045 67.5597 22.3846 67.8261 21.8466C68.5713 20.3412 67.3869 18.657 65.7219 18.8546C65.1511 18.9224 65.0006 19.0081 63.2277 20.2774C62.19 21.0203 61.2112 21.7827 61.053 21.9717ZM39.3259 50.2746L40.0431 53.0142L40.93 52.4104C41.4178 52.0783 42.1999 51.5058 42.6679 51.1382L43.5188 50.4698L41.1268 48.9562C39.8111 48.1238 38.7063 47.4634 38.6717 47.4887C38.6371 47.5141 38.9315 48.7678 39.3259 50.2746ZM19.2894 62.6107C18.3872 63.6669 18.7633 65.3049 20.0388 65.875C21.0346 66.32 21.3679 66.2063 23.5333 64.6823C24.7773 63.8069 25.564 63.1851 25.8044 62.8876C26.553 61.9613 26.4315 60.5645 25.5445 59.8993C24.9794 59.4754 24.0965 59.3424 23.4607 59.5854C22.9183 59.7926 19.7073 62.1215 19.2894 62.6107ZM65.7216 28.7033C65.3404 29.2662 65.2482 30.0245 65.4804 30.6881C65.8395 31.7143 67.1452 32.2487 68.2437 31.8191C68.6 31.6799 69.4304 31.1178 70.6408 30.1965C72.3364 28.9059 72.5098 28.7451 72.6956 28.2921C73.2914 26.84 72.1152 25.2334 70.551 25.3626C70.0571 25.4033 69.8715 25.5109 68.0233 26.8282C66.49 27.9211 65.9577 28.3547 65.7216 28.7033ZM23.822 69.5817C23.0767 71.0872 24.2632 72.7743 25.925 72.572C26.4731 72.5053 26.6862 72.3904 28.1513 71.3711C30.8213 69.5136 31.255 68.9574 31.0397 67.6667C30.8778 66.6963 30.3567 66.2016 29.3386 66.0522C28.8882 65.986 28.4207 66.0156 28.1863 66.1253C27.9693 66.2267 26.9625 66.9168 25.9489 67.6589C24.221 68.9238 24.0884 69.0437 23.822 69.5817ZM70.5319 35.1344C70.4152 35.2585 70.2637 35.7066 70.1947 36.1303C70.0272 37.1609 70.337 37.804 71.2176 38.2538C72.3829 38.849 73.0441 38.6036 75.6216 36.6197C77.0359 35.531 77.2098 35.3626 77.4391 34.8603C78.134 33.3372 76.8843 31.6965 75.2239 31.952C74.6227 32.0446 74.4953 32.1207 72.6675 33.4791C71.6095 34.2655 70.6484 35.0104 70.5319 35.1344ZM28.8267 78.2964C29.0535 78.6062 29.1657 78.7187 29.0762 78.5464C28.9866 78.3741 28.8009 78.1204 28.6637 77.983C28.5265 77.8455 28.5998 77.9865 28.8267 78.2964Z" fill="white"/>
</g>
<defs>
<clipPath id="clip0_993_12851">
<rect width="66" height="65" fill="white" transform="translate(0 38.9844) rotate(-36.2066)"/>
</clipPath>
</defs>
</svg>
