<svg width="135" height="129" viewBox="0 0 135 129" fill="none" xmlns="http://www.w3.org/2000/svg">
<g clip-path="url(#clip0_993_12853)" filter="url(#filter0_f_993_12853)">
<path fill-rule="evenodd" clip-rule="evenodd" d="M44.2126 9.09377C43.9036 9.17688 43.4002 9.42813 43.0936 9.65212C41.9045 10.522 41.8483 10.7353 41.1365 17.0678L40.4699 22.9989L38.7133 23.5981C36.3464 24.4051 33.9215 26.3047 32.7953 28.2337L32.0033 29.5905L24.9799 28.8011C18.0312 28.02 17.9484 28.0159 17.1763 28.4121C15.8236 29.106 15.2206 29.9896 15.1644 31.361C15.1041 32.8279 15.6393 33.8686 16.8079 34.5574C17.5662 35.0041 18.2756 35.1223 24.2641 35.7997L30.8823 36.5483L28.2376 60.0784L25.5929 83.6084L18.9737 82.8692C12.9842 82.2003 12.2662 82.158 11.4278 82.4253C10.1353 82.8375 9.38249 83.7334 9.11561 85.1771C8.86605 86.5267 9.25788 87.5221 10.4227 88.499C11.0876 89.0567 11.1693 89.0711 18.118 89.8521L25.1414 90.6415L25.6124 92.1402C26.2823 94.271 28.2251 96.6616 30.3537 97.9739L31.9335 98.9481L31.2596 104.943C30.6 110.812 30.5944 110.955 30.9913 111.694C31.596 112.82 32.3357 113.395 33.4822 113.629C34.9077 113.92 36.3206 113.358 37.1374 112.176C37.7192 111.335 37.7553 111.145 38.3645 105.725L38.9922 100.141L42.2051 100.502L45.4183 100.863L44.8503 106.541C44.3625 111.418 44.324 112.319 44.5768 112.925C45.2269 114.482 46.6592 115.378 48.313 115.26C49.3485 115.187 50.8702 114.093 51.257 113.144C51.4259 112.728 51.8311 110.006 52.1649 107.041L52.7678 101.689L55.9965 102.052L59.2251 102.415L58.6367 107.662C58.2807 110.835 58.1045 113.252 58.191 113.778C58.4932 115.617 60.2114 116.942 62.1196 116.806C63.1665 116.732 64.5891 115.627 65.0293 114.547C65.2304 114.053 65.5951 111.657 65.9524 108.484L66.5434 103.237L69.7721 103.6L73.0007 103.963L72.3805 109.481C71.6908 115.618 71.7109 115.92 72.8928 117.199C74.4818 118.919 77.0912 118.704 78.4932 116.737C78.8741 116.203 79.0366 115.315 79.6436 110.452L80.3502 104.789L83.5634 105.15L86.7764 105.511L86.1487 111.096C85.5395 116.516 85.5327 116.709 85.913 117.659C86.4471 118.993 87.7001 119.854 89.1547 119.886C90.3246 119.912 91.1734 119.516 92.013 118.553C92.564 117.92 92.5903 117.779 93.2499 111.911L93.9237 105.916L95.6803 105.316C98.0472 104.509 100.472 102.61 101.598 100.681L102.39 99.324L109.414 100.113C116.353 100.893 116.446 100.898 117.214 100.504C118.472 99.8588 119.347 98.7147 119.489 97.5303C119.564 96.9035 119.522 96.5528 119.381 96.6184C119.254 96.6772 119.163 96.615 119.178 96.4804C119.236 95.9621 118.387 94.8292 117.586 94.357C116.827 93.9103 116.118 93.7922 110.129 93.1148L103.511 92.3662L105.873 71.3265L108.234 50.2868L107.843 49.3886C106.823 47.0415 103.762 46.5066 101.961 48.3608L101.297 49.0441L98.5026 72.9343C95.7158 96.7608 95.7069 96.8259 95.1909 97.3722C94.5229 98.0793 93.3611 98.6773 92.3476 98.8358C91.1405 99.0245 36.1804 92.8186 34.9197 92.3513C33.5174 91.8313 32.3295 90.3553 32.2898 89.0837C32.2732 88.5505 33.7044 75.5183 35.4701 60.1232L38.6805 32.1321L39.3726 31.4197C39.7532 31.0278 40.4947 30.5391 41.0204 30.3337L41.9761 29.9601L70.7112 33.1898L99.4462 36.4195L100.295 36.996C101.613 37.8904 102.135 38.9315 102.086 40.5605C102.03 42.3774 102.513 43.4936 103.681 44.2476C104.577 44.8257 104.687 44.8437 113.313 45.8085C121.286 46.7003 122.117 46.7596 122.944 46.4957C123.945 46.1756 124.16 46.0067 124.951 44.9145C125.44 44.2388 125.97 41.9981 125.565 42.316C125.483 42.3808 125.242 42.1064 125.029 41.7065C124.817 41.3063 124.341 40.7253 123.971 40.4154C123.306 39.8577 123.224 39.8434 116.276 39.0624L109.252 38.273L108.781 36.7743C108.111 34.6434 106.169 32.2529 104.04 30.9406L102.46 29.9664L103.134 23.9711C103.794 18.1026 103.799 17.9598 103.402 17.2206C102.798 16.0945 102.058 15.5198 100.911 15.2858C99.4859 14.9946 98.073 15.556 97.2562 16.738C96.6744 17.58 96.6383 17.7693 96.0291 23.1895L95.4014 28.7738L92.1885 28.4126L88.9753 28.0515L89.5433 22.3732C90.0311 17.4966 90.0696 16.5953 89.8168 15.9896C88.8864 13.7608 86.3899 12.9716 84.4587 14.2958C83.0224 15.2807 82.9357 15.5708 82.246 21.7071L81.6258 27.2254L78.3971 26.8625L75.1685 26.4996L75.7569 21.2529C76.1129 18.0793 76.2891 15.6627 76.2026 15.1365C76.0134 13.985 74.8716 12.5919 73.8672 12.2871C72.0366 11.7317 70.0673 12.6418 69.3643 14.3679C69.1632 14.8617 68.7985 17.2571 68.4412 20.4307L67.8502 25.6771L64.6215 25.3142L61.3929 24.9513L61.9932 19.5986C62.3257 16.6342 62.535 13.8896 62.4625 13.4472C62.2961 12.4359 61.0553 11.031 60.0619 10.7296C58.4754 10.2482 56.8801 10.8033 55.9004 12.1775C55.5195 12.7119 55.357 13.5993 54.75 18.4625L54.0434 24.1253L50.8302 23.7641L47.6173 23.403L48.2449 17.8187C48.8541 12.3985 48.8609 12.2059 48.4806 11.2558C47.8319 9.63515 45.8795 8.64637 44.2126 9.09377ZM15.2087 31.1374C15.1366 31.7786 15.1474 32.0454 15.2327 31.7304C15.318 31.4154 15.377 30.8908 15.3637 30.5645C15.3505 30.2382 15.2807 30.4961 15.2087 31.1374ZM56.4802 45.0804C55.6916 45.3249 54.9242 45.879 54.4936 46.5147C54.0219 47.2109 39.4607 74.5768 39.1177 75.4118C38.4808 76.9619 39.6858 79.4103 41.3313 79.9095C43.5756 80.5907 44.8123 79.7824 46.6642 76.4244L48.002 73.9988L54.5142 74.7308L61.0267 75.4627L61.7762 78.1023C62.1887 79.5541 62.6762 80.9473 62.8596 81.1984C63.3562 81.8783 64.6071 82.627 65.394 82.7154C66.4173 82.8304 67.8463 82.2483 68.559 81.4264C69.8034 79.9911 69.8246 80.1068 65.1872 63.0507C62.7185 53.9702 60.7683 47.2166 60.4786 46.7439C59.5926 45.2986 57.9632 44.6207 56.4802 45.0804ZM77.9265 47.4965C76.9616 47.7948 75.7435 48.9572 75.4701 49.8403C75.1998 50.7135 75.3887 51.996 75.9091 52.8226C76.4333 53.6547 77.5059 54.2389 78.77 54.381L79.8675 54.5044L78.6047 65.7394L77.342 76.9745L76.2444 76.8512C74.9803 76.7091 73.8048 77.0406 73.109 77.7356C72.4156 78.4285 71.9494 79.6349 72.0195 80.5543C72.0982 81.5838 73.2071 83.0958 74.1803 83.5008C74.6628 83.7014 77.0196 84.0253 80.6669 84.3923L86.3956 84.9686L87.2526 84.4634C88.3695 83.805 88.8659 83.0421 89.0097 81.763C89.2263 79.8355 88.0104 78.3469 85.8824 77.9345L84.5645 77.679L85.8154 66.5499L87.0663 55.4208L88.408 55.4643C90.5745 55.5346 92.0905 54.353 92.3071 52.4255C92.4509 51.1461 92.1363 50.2921 91.1933 49.4024L90.4699 48.7196L84.5391 48.0027C79.9625 47.4495 78.4526 47.3339 77.9265 47.4965ZM16.8928 41.6173C13.4739 42.0277 12.3791 46.139 15.1868 48.0233C16.0244 48.5855 16.3178 48.6496 19.8936 49.0515C21.9912 49.2872 24.0353 49.453 24.4364 49.4197C24.8699 49.3839 25.5763 49.0368 26.1778 48.5643C27.5371 47.4967 27.8857 46.3368 27.3092 44.8005C26.8496 43.5759 26.2232 42.9438 25.07 42.5402C24.1025 42.202 17.8767 41.4993 16.8928 41.6173ZM113.04 52.4276C111.931 52.5717 111.147 53.0923 110.453 54.1456C109.55 55.5155 109.632 56.7239 110.72 58.0666C111.202 58.6608 111.814 59.1561 112.228 59.2873C112.612 59.4087 114.642 59.7009 116.74 59.9366C120.315 60.3385 120.616 60.3412 121.557 59.979C124.192 58.9657 124.643 55.5355 122.36 53.8855C121.577 53.3199 121.293 53.2547 117.657 52.807C115.529 52.5448 113.451 52.3739 113.04 52.4276ZM53.9734 62.7026L51.743 66.9062L53.5268 67.1687C54.5077 67.3131 56.1261 67.495 57.1231 67.5729L58.9356 67.7146L57.7001 63.1215C57.0204 60.5954 56.4058 58.5218 56.3341 58.5138C56.2625 58.5057 55.2001 60.3908 53.9734 62.7026ZM15.1633 55.159C12.8461 55.4385 11.4474 57.8917 12.376 60.0478C13.1009 61.7311 13.6423 61.9697 18.0537 62.549C20.5879 62.882 22.2681 63.0083 22.9038 62.9139C24.8835 62.6203 26.3224 60.755 25.9825 58.9233C25.7661 57.7561 24.8257 56.5872 23.7632 56.1643C22.8567 55.8033 16.2367 55.0296 15.1633 55.159ZM111.154 66.0627C110.042 66.325 109.065 67.1577 108.597 68.2424C107.874 69.9198 108.88 72.0662 110.727 72.7849C111.326 73.0182 112.993 73.2679 115.537 73.5059C119.102 73.8394 119.5 73.8379 120.245 73.4891C122.634 72.3715 123.007 69.0468 120.926 67.4268C120.269 66.9153 119.917 66.8371 116.133 66.363C112.994 65.9698 111.842 65.9003 111.154 66.0627ZM12.8363 68.9354C10.2019 69.949 9.74942 73.3849 12.0343 75.0256C12.788 75.5667 13.1822 75.667 16.1535 76.0737C21.5683 76.8148 22.7373 76.6205 23.9396 74.7797C24.8435 73.3957 24.762 72.191 23.6732 70.8479C23.1916 70.2537 22.5798 69.7584 22.1652 69.6272C21.7815 69.5057 19.7515 69.2136 17.654 68.9778C14.0781 68.5759 13.7778 68.5733 12.8363 68.9354ZM109.784 79.4876C109.499 79.5083 108.802 79.8899 108.235 80.3353C106.855 81.4191 106.506 82.5667 107.083 84.1248C107.847 86.1866 108.944 86.6355 114.388 87.1149C117.375 87.378 117.782 87.3676 118.637 87.0074C121.229 85.9148 121.551 82.4642 119.207 80.8911C118.358 80.3215 118.114 80.2707 114.308 79.8707C112.106 79.6392 110.07 79.4668 109.784 79.4876ZM9.10918 85.405C9.0371 86.0462 9.04788 86.3129 9.1332 85.998C9.21851 85.683 9.27751 85.1581 9.26424 84.8321C9.25097 84.506 9.18125 84.7637 9.10918 85.405Z" fill="white"/>
</g>
<defs>
<filter id="filter0_f_993_12853" x="-2.7" y="-4.7" width="139.798" height="138.322" filterUnits="userSpaceOnUse" color-interpolation-filters="sRGB">
<feFlood flood-opacity="0" result="BackgroundImageFix"/>
<feBlend mode="normal" in="SourceGraphic" in2="BackgroundImageFix" result="shape"/>
<feGaussianBlur stdDeviation="4.35" result="effect1_foregroundBlur_993_12853"/>
</filter>
<clipPath id="clip0_993_12853">
<rect width="110.899" height="109.219" fill="white" transform="translate(18.1953 4) rotate(6.41294)"/>
</clipPath>
</defs>
</svg>
