<svg width="29" height="29" viewBox="0 0 29 29" fill="none" xmlns="http://www.w3.org/2000/svg">
<path d="M24.6526 4.72884C24.6526 4.72884 26.9652 3.82709 26.7725 6.01704C26.7083 6.91879 26.1301 10.0749 25.6805 13.4886L24.1387 23.6011C24.1387 23.6011 24.0103 25.0825 22.854 25.3401C21.6977 25.5977 19.9633 24.4384 19.6421 24.1807C19.3851 23.9875 14.8243 21.089 13.2183 19.672C12.7686 19.2856 12.2547 18.5126 13.2825 17.6109L20.0275 11.1699C20.7984 10.397 21.5692 8.59347 18.3573 10.7834L9.364 16.9024C9.364 16.9024 8.3362 17.5465 6.40909 16.9668L2.2336 15.6786C2.2336 15.6786 0.691884 14.7124 3.32565 13.7462C9.74946 10.719 17.6507 7.62727 24.6526 4.72884Z" fill="#EC0D3A"/>
</svg>
