<svg width="29" height="29" viewBox="0 0 29 29" fill="none" xmlns="http://www.w3.org/2000/svg">
<path d="M24.6526 4.34993C24.6526 4.34993 26.9652 3.44819 26.7725 5.63813C26.7083 6.53989 26.1301 9.69598 25.6805 13.1097L24.1387 23.2221C24.1387 23.2221 24.0103 24.7036 22.854 24.9612C21.6977 25.2188 19.9633 24.0595 19.6421 23.8018C19.3851 23.6086 14.8243 20.7101 13.2183 19.2931C12.7686 18.9066 12.2547 18.1337 13.2825 17.232L20.0275 10.791C20.7984 10.018 21.5692 8.21456 18.3573 10.4045L9.364 16.5235C9.364 16.5235 8.3362 17.1676 6.40909 16.5879L2.2336 15.2997C2.2336 15.2997 0.691884 14.3335 3.32565 13.3673C9.74946 10.3401 17.6507 7.24836 24.6526 4.34993Z" fill="white"/>
</svg>
