<svg width="30" height="29" viewBox="0 0 30 29" fill="none" xmlns="http://www.w3.org/2000/svg">
<path d="M27.4516 7.23642C26.535 7.65309 25.5469 7.9269 24.5231 8.05785C25.5707 7.4269 26.3802 6.4269 26.7612 5.22452C25.7731 5.81975 24.6778 6.23642 23.5231 6.47452C22.5826 5.45071 21.2612 4.85547 19.7612 4.85547C16.9635 4.85547 14.6778 7.14118 14.6778 9.96261C14.6778 10.3674 14.7254 10.7602 14.8088 11.1293C10.5707 10.915 6.79688 8.87928 4.28497 5.79594C3.84449 6.54594 3.59449 7.4269 3.59449 8.35547C3.59449 10.1293 4.48735 11.7007 5.8683 12.5936C5.02307 12.5936 4.23735 12.3555 3.54688 11.9983V12.034C3.54688 14.5102 5.30878 16.5817 7.64211 17.0459C6.89311 17.2518 6.10644 17.2804 5.34449 17.1293C5.66784 18.1441 6.30109 19.0321 7.15523 19.6685C8.00937 20.3048 9.04145 20.6575 10.1064 20.6769C8.30124 22.1061 6.06355 22.8786 3.76116 22.8674C3.3564 22.8674 2.95164 22.8436 2.54688 22.7959C4.80878 24.2483 7.49926 25.0936 10.3802 25.0936C19.7612 25.0936 24.9159 17.3078 24.9159 10.5578C24.9159 10.3317 24.9159 10.1174 24.904 9.89118C25.904 9.1769 26.7612 8.27214 27.4516 7.23642Z" fill="#EC0D3A"/>
</svg>
